<svg class="svg-icon" style="width: 1em; height: 1em;vertical-align: middle;fill: currentColor;overflow: hidden;" viewBox="0 0 1024 1024" version="1.1" xmlns="http://www.w3.org/2000/svg"><path d="M215.961 563.71c-10.629 0-19.246-8.614-19.246-19.243V215.649c0-10.629 8.616-19.243 19.246-19.243s19.246 8.614 19.246 19.243v328.818c-0.001 10.63-8.617 19.243-19.246 19.243zM687.611 490.578c-10.629 0-19.246-8.614-19.246-19.243V216.392c0-19.482-15.851-35.335-35.333-35.335h-352.19c-10.629 0-19.246-8.614-19.246-19.243s8.616-19.243 19.246-19.243h352.19c40.706 0 73.824 33.113 73.824 73.821v254.943c0 10.63-8.616 19.243-19.245 19.243z" fill="white" /><path d="M603.99 764.988H379.357c-40.706 0-73.824-33.113-73.824-73.821V216.392c0-10.629 8.616-19.243 19.246-19.243s19.246 8.614 19.246 19.243v474.774c0 19.482 15.848 35.335 35.333 35.335H603.99c10.629 0 19.246 8.614 19.246 19.243s-8.617 19.244-19.246 19.244z" fill="white" /><path d="M687.611 756.485c-79.385 0-143.97-64.582-143.97-143.967s64.584-143.967 143.97-143.967c79.383 0 143.967 64.582 143.967 143.967s-64.585 143.967-143.967 143.967z m0-249.448c-58.161 0-105.479 47.317-105.479 105.481s47.317 105.481 105.479 105.481 105.476-47.317 105.476-105.481-47.315-105.481-105.476-105.481z" fill="white" /><path d="M687.611 674.029c-33.917 0-61.511-27.592-61.511-61.511 0-33.914 27.594-61.505 61.511-61.505s61.511 27.592 61.511 61.505c-0.001 33.919-27.595 61.511-61.511 61.511z m0-84.53c-12.693 0-23.019 10.327-23.019 23.019s10.327 23.025 23.019 23.025c12.693 0 23.019-10.332 23.019-23.025s-10.327-23.019-23.019-23.019zM765.495 882.896c-3.055 0-6.116-0.727-8.913-2.185l-70.077-36.624-67.642 36.502a19.221 19.221 0 0 1-18.999-0.408 19.244 19.244 0 0 1-9.385-16.527V713.035c0-10.629 8.616-19.243 19.246-19.243s19.246 8.614 19.246 19.243V831.4l48.251-26.037a19.264 19.264 0 0 1 18.052-0.122l50.977 26.642V713.035c0-10.629 8.616-19.243 19.246-19.243s19.246 8.614 19.246 19.243v150.619a19.237 19.237 0 0 1-9.274 16.458 19.22 19.22 0 0 1-9.974 2.784zM161.541 623.71c-40.311 0-73.105-32.79-73.105-73.1 0-10.629 8.616-19.243 19.246-19.243s19.246 8.614 19.246 19.243c0 19.084 15.528 34.614 34.614 34.614s34.611-15.53 34.611-34.614c0-10.629 8.616-19.243 19.246-19.243s19.246 8.614 19.246 19.243c-0.001 40.31-32.796 73.1-73.104 73.1zM324.667 234.818c-10.629 0-19.246-8.614-19.246-19.243 0-19.084-15.525-34.614-34.611-34.614s-34.614 15.53-34.614 34.614c0 10.629-8.616 19.243-19.246 19.243s-19.246-8.614-19.246-19.243c0-40.311 32.795-73.1 73.105-73.1 40.308 0 73.103 32.79 73.103 73.1 0 10.63-8.616 19.243-19.245 19.243zM872.422 560.379c-10.629 0-19.246-8.614-19.246-19.243 0-55.035-44.771-99.811-99.806-99.811-10.629 0-19.246-8.614-19.246-19.243s8.616-19.243 19.246-19.243c76.256 0 138.297 62.041 138.297 138.297 0 10.63-8.616 19.243-19.245 19.243z" fill="white" /><path d="M320.842 623.71H161.541c-10.629 0-19.246-8.614-19.246-19.243s8.616-19.243 19.246-19.243h159.301c10.629 0 19.246 8.614 19.246 19.243s-8.616 19.243-19.246 19.243zM493.719 298.493h-89.853c-10.629 0-19.246-8.614-19.246-19.243s8.616-19.243 19.246-19.243h89.853c10.629 0 19.246 8.614 19.246 19.243s-8.616 19.243-19.246 19.243zM608.522 381.878H403.866c-10.629 0-19.246-8.614-19.246-19.243s8.616-19.243 19.246-19.243h204.656c10.629 0 19.246 8.614 19.246 19.243s-8.616 19.243-19.246 19.243zM608.522 465.262H403.866c-10.629 0-19.246-8.614-19.246-19.243 0-10.629 8.616-19.243 19.246-19.243h204.656c10.629 0 19.246 8.614 19.246 19.243 0 10.63-8.616 19.243-19.246 19.243zM581.313 548.647H403.866c-10.629 0-19.246-8.614-19.246-19.243s8.616-19.243 19.246-19.243h177.446c10.629 0 19.246 8.614 19.246 19.243s-8.616 19.243-19.245 19.243zM562.886 632.032h-159.02c-10.629 0-19.246-8.614-19.246-19.243s8.616-19.243 19.246-19.243h159.02c10.629 0 19.246 8.614 19.246 19.243s-8.616 19.243-19.246 19.243z" fill="white" /></svg>